<svg xmlns="http://www.w3.org/2000/svg" width="179.244" height="52.759" viewBox="0 0 179.244 52.759">
    <defs>
        <linearGradient id="tv1wo1v8aa" x1=".808" y1=".5" x2="-1.573" y2=".5" gradientUnits="objectBoundingBox">
            <stop offset="0" stop-color="gold"/>
            <stop offset=".075" stop-color="#fece00"/>
            <stop offset=".48" stop-color="#fca704"/>
            <stop offset=".803" stop-color="#fa8e07"/>
            <stop offset="1" stop-color="#fa8608"/>
        </linearGradient>
        <linearGradient id="7xkip96nyb" x1=".862" y1=".178" x2="-.501" y2="1.948" gradientUnits="objectBoundingBox">
            <stop offset="0" stop-color="#e82b36"/>
            <stop offset="1" stop-color="#b4005a"/>
        </linearGradient>
        <linearGradient id="x6rxfrh72c" x1="-.507" y1="-.956" x2=".606" y2=".489" gradientUnits="objectBoundingBox">
            <stop offset="0" stop-color="#2f8e5b"/>
            <stop offset=".39" stop-color="#4ea157"/>
            <stop offset=".768" stop-color="#67b054"/>
            <stop offset="1" stop-color="#70b653"/>
        </linearGradient>
    </defs>
    <g data-name="Group 1131">
        <g data-name="Group 1183">
            <rect data-name="Rectangle 536" width="177.914" height="51.428" rx="7.382" transform="translate(.665 .665)"/>
            <path data-name="Path 1198" d="M197.957 147.348H32.2a6.754 6.754 0 0 1-6.746-6.746v-39.267a6.754 6.754 0 0 1 6.746-6.746h165.757a6.754 6.754 0 0 1 6.746 6.746V140.6a6.754 6.754 0 0 1-6.746 6.748zM32.2 95.919a5.422 5.422 0 0 0-5.416 5.416V140.6a5.422 5.422 0 0 0 5.416 5.415h165.757a5.422 5.422 0 0 0 5.416-5.415v-39.265a5.422 5.422 0 0 0-5.416-5.416z" transform="translate(-25.459 -94.589)" style="fill:#96999c"/>
        </g>
        <g data-name="Group 1185">
            <path data-name="Path 1199" d="M127.551 128.284a5.635 5.635 0 1 0 5.656 5.635 5.554 5.554 0 0 0-5.656-5.635zm0 9.05a3.424 3.424 0 1 1 3.18-3.415 3.26 3.26 0 0 1-3.18 3.415zm-12.338-9.05a5.635 5.635 0 1 0 5.655 5.635 5.554 5.554 0 0 0-5.655-5.635zm0 9.05a3.424 3.424 0 1 1 3.179-3.415 3.26 3.26 0 0 1-3.179 3.415zm-14.677-7.321v2.39h5.72a4.989 4.989 0 0 1-1.3 3.01 5.859 5.859 0 0 1-4.418 1.749 6.361 6.361 0 0 1 0-12.72 6.1 6.1 0 0 1 4.311 1.707l1.686-1.686a8.339 8.339 0 0 0-6-2.412 8.752 8.752 0 1 0 0 17.5 8 8 0 0 0 6.1-2.455 7.9 7.9 0 0 0 2.07-5.592 7.771 7.771 0 0 0-.128-1.494zm60.024 1.857a5.237 5.237 0 0 0-4.824-3.585 5.354 5.354 0 0 0-5.314 5.635 5.514 5.514 0 0 0 5.591 5.635 5.6 5.6 0 0 0 4.7-2.5l-1.921-1.281a3.22 3.22 0 0 1-2.775 1.558 2.865 2.865 0 0 1-2.731-1.707l7.534-3.116zm-7.684 1.879a3.091 3.091 0 0 1 2.945-3.287 2.181 2.181 0 0 1 2.091 1.2zm-6.125 5.463h2.475V122.65h-2.475zm-4.056-9.668h-.085a3.907 3.907 0 0 0-2.967-1.259 5.64 5.64 0 0 0 0 11.27 3.843 3.843 0 0 0 2.967-1.281h.085v.811c0 2.156-1.152 3.309-3.009 3.309a3.117 3.117 0 0 1-2.838-2.006l-2.156.9a5.371 5.371 0 0 0 4.995 3.33c2.9 0 5.357-1.707 5.357-5.869v-10.123H142.7zm-2.838 7.79a3.427 3.427 0 0 1 0-6.83 3.442 3.442 0 0 1 0 6.83zm32.3-14.684h-5.923v16.562h2.466v-6.275h3.452a5.151 5.151 0 1 0 0-10.287zm.064 7.982H168.7v-5.678h3.516a2.839 2.839 0 1 1 0 5.678zm15.277-2.379a4.641 4.641 0 0 0-4.411 2.535l2.2.917a2.341 2.341 0 0 1 2.259-1.215 2.38 2.38 0 0 1 2.6 2.131v.171a5.478 5.478 0 0 0-2.579-.639c-2.365 0-4.772 1.3-4.772 3.729a3.826 3.826 0 0 0 4.113 3.643 3.486 3.486 0 0 0 3.153-1.619h.086v1.278h2.386v-6.349c-.007-2.941-2.202-4.582-5.033-4.582zm-.3 9.077c-.81 0-1.939-.405-1.939-1.406 0-1.278 1.406-1.769 2.621-1.769a4.4 4.4 0 0 1 2.259.554 3 3 0 0 1-2.939 2.621zm14.02-8.714-2.834 7.18h-.084l-2.941-7.18H192.7l4.41 10.036-2.514 5.582h2.578l6.8-15.618zm-22.266 10.6h2.471V122.65h-2.471z" transform="translate(-37.131 -99.431)" style="fill:#fff"/>
            <g data-name="Group 1184">
                <path data-name="Path 1200" d="M42.3 106.752a2.651 2.651 0 0 0-.612 1.86v29.275a2.649 2.649 0 0 0 .612 1.859l.1.1 16.4-16.4v-.387l-16.4-16.4z" transform="translate(-28.32 -96.717)" style="fill:#40bff2"/>
                <path data-name="Path 1201" d="m67.925 131.251-5.466-5.468v-.383l5.468-5.468.123.07 6.477 3.68c1.85 1.051 1.85 2.771 0 3.822l-6.477 3.68z" transform="translate(-31.983 -99.057)" style="fill:url(#tv1wo1v8aa)"/>
                <path data-name="Path 1202" d="m64.518 132.392-5.59-5.591-16.5 16.5a2.154 2.154 0 0 0 2.751.082l19.337-10.987" transform="translate(-28.451 -100.269)" style="fill:url(#7xkip96nyb)"/>
                <path data-name="Path 1203" d="m64.518 117.566-19.337-10.987a2.154 2.154 0 0 0-2.751.081l16.5 16.5z" transform="translate(-28.451 -96.624)" style="fill:url(#x6rxfrh72c)"/>
            </g>
        </g>
        <g data-name="Group 1186">
            <path data-name="Path 1204" d="M98.14 107.539a2.83 2.83 0 0 0-1.877-.724 2.994 2.994 0 0 0 0 5.984 2.26 2.26 0 0 0 2.488-2.1h-2.217v-.916h3.416c0 2.738-1.46 4.027-3.688 4.027a4 4 0 0 1 0-8 3.851 3.851 0 0 1 2.636 1.03z" transform="translate(-37.249 -96.567)" style="fill:#fff"/>
            <path data-name="Path 1205" d="M107.943 105.918v.983h-3.563v2.489h3.111v.984h-3.111v2.352h3.676v.984h-4.728v-7.794z" transform="translate(-39.189 -96.586)" style="fill:#fff"/>
            <path data-name="Path 1206" d="M115.973 105.918v.995h-2.365v6.8h-1.063v-6.8h-2.365v-.995z" transform="translate(-40.397 -96.586)" style="fill:#fff"/>
            <path data-name="Path 1207" d="M123.115 105.918v7.794h-1.052v-7.794z" transform="translate(-42.492 -96.586)" style="fill:#fff"/>
            <path data-name="Path 1208" d="M130.807 105.918v.995h-2.365v6.8h-1.062v-6.8h-2.365v-.995z" transform="translate(-43.013 -96.586)" style="fill:#fff"/>
            <path data-name="Path 1209" d="M140.214 105.808a4 4 0 1 1-3.936 4 3.953 3.953 0 0 1 3.936-4zm0 6.979a2.982 2.982 0 1 0-2.885-2.974 2.9 2.9 0 0 0 2.885 2.974z" transform="translate(-44.999 -96.567)" style="fill:#fff"/>
            <path data-name="Path 1210" d="m152.434 113.712-3.552-5.87v5.87h-1.052v-7.794h1.04l3.518 5.825v-5.825h1.052v7.794z" transform="translate(-47.036 -96.586)" style="fill:#fff"/>
        </g>
    </g>
</svg>
