<svg data-name="Group 1130" xmlns="http://www.w3.org/2000/svg" width="179.244" height="52.759" viewBox="0 0 179.244 52.759">
    <g data-name="Group 1177">
        <rect data-name="Rectangle 535" width="177.914" height="51.428" rx="7.382" transform="translate(.665 .665)"/>
        <path data-name="Path 1173" d="M197.957 70.558H32.2a6.754 6.754 0 0 1-6.746-6.746V24.545A6.754 6.754 0 0 1 32.2 17.8h165.757a6.754 6.754 0 0 1 6.746 6.746v39.266a6.754 6.754 0 0 1-6.746 6.746zM32.2 19.129a5.422 5.422 0 0 0-5.416 5.416v39.267a5.422 5.422 0 0 0 5.416 5.415h165.757a5.422 5.422 0 0 0 5.416-5.415V24.545a5.422 5.422 0 0 0-5.416-5.416z" transform="translate(-25.459 -17.799)" style="fill:#96999c"/>
    </g>
    <g data-name="Group 1178">
        <path data-name="Path 1174" d="m97.4 34.684-.746 2.455H95.02l2.78-8.665h2.018l2.816 8.666h-1.7l-.784-2.455zm2.482-1.2-.682-2.13c-.167-.527-.309-1.119-.437-1.62h-.026c-.128.5-.257 1.105-.412 1.62l-.668 2.134z" transform="translate(-37.724 -19.681)" style="fill:#fff"/>
        <path data-name="Path 1175" d="m106.765 31.393 1.015 3.176c.18.553.309 1.054.425 1.568h.039c.115-.514.257-1 .424-1.568l1-3.176h1.659l-2.392 6.262h-1.555l-2.328-6.262z" transform="translate(-39.493 -20.196)" style="fill:#fff"/>
        <path data-name="Path 1176" d="M119.2 36.12a8.418 8.418 0 0 0 .1 1.5h-1.427l-.115-.694h-.039a2.288 2.288 0 0 1-1.852.836A1.858 1.858 0 0 1 113.9 35.9c0-1.568 1.4-2.378 3.716-2.366v-.1c0-.411-.167-1.092-1.273-1.092a3.307 3.307 0 0 0-1.684.463l-.309-1.029a4.506 4.506 0 0 1 2.263-.553 2.345 2.345 0 0 1 2.587 2.647zm-1.543-1.556c-1.119-.013-2.186.218-2.186 1.17a.83.83 0 0 0 .9.9 1.3 1.3 0 0 0 1.247-.862 1.062 1.062 0 0 0 .039-.347z" transform="translate(-41.054 -20.165)" style="fill:#fff"/>
        <path data-name="Path 1177" d="M123.813 29.934a.895.895 0 1 1 .013 0zm-.784 7.162v-6.262h1.581V37.1z" transform="translate(-42.647 -19.637)" style="fill:#fff"/>
        <path data-name="Path 1178" d="M127.73 27.9h1.581v9.142h-1.581z" transform="translate(-43.492 -19.579)" style="fill:#fff"/>
        <path data-name="Path 1179" d="M137.194 36.12a8.5 8.5 0 0 0 .1 1.5h-1.427l-.115-.694h-.039a2.287 2.287 0 0 1-1.852.836A1.859 1.859 0 0 1 131.9 35.9c0-1.568 1.4-2.378 3.716-2.366v-.1c0-.411-.166-1.092-1.273-1.092a3.307 3.307 0 0 0-1.684.463l-.308-1.029a4.5 4.5 0 0 1 2.263-.553 2.346 2.346 0 0 1 2.585 2.648zm-1.544-1.556c-1.119-.013-2.185.218-2.185 1.17a.829.829 0 0 0 .9.9 1.3 1.3 0 0 0 1.247-.862 1.062 1.062 0 0 0 .039-.347z" transform="translate(-44.226 -20.165)" style="fill:#fff"/>
        <path data-name="Path 1180" d="M141.031 27.9h1.581v3.742h.026a2.267 2.267 0 0 1 2.006-1c1.53 0 2.623 1.273 2.609 3.175 0 2.25-1.427 3.369-2.841 3.369a2.155 2.155 0 0 1-1.98-1.081h-.026l-.077.939h-1.35c.026-.424.052-1.119.052-1.749zm1.581 6.557a1.753 1.753 0 0 0 .038.373 1.445 1.445 0 0 0 1.4 1.106c.99 0 1.594-.784 1.594-2.058 0-1.105-.527-2.006-1.581-2.006a1.47 1.47 0 0 0-1.4 1.157 1.9 1.9 0 0 0-.051.412z" transform="translate(-45.828 -19.579)" style="fill:#fff"/>
        <path data-name="Path 1181" d="M150.857 27.9h1.581v9.142h-1.581z" transform="translate(-47.569 -19.579)" style="fill:#fff"/>
        <path data-name="Path 1182" d="M156.588 34.938a1.7 1.7 0 0 0 1.928 1.62 5.042 5.042 0 0 0 1.735-.283l.231 1.08a5.62 5.62 0 0 1-2.185.4 2.962 2.962 0 0 1-3.228-3.163 3.1 3.1 0 0 1 3.061-3.368c2.031 0 2.7 1.671 2.7 3.047a4.033 4.033 0 0 1-.05.669zm2.751-1.106a1.346 1.346 0 0 0-1.3-1.53 1.547 1.547 0 0 0-1.452 1.53z" transform="translate(-48.312 -20.165)" style="fill:#fff"/>
        <path data-name="Path 1183" d="M170.864 37.766a3.028 3.028 0 0 1-3.138-3.227 3.092 3.092 0 0 1 3.241-3.317 3 3 0 0 1 3.111 3.214 3.1 3.1 0 0 1-3.2 3.33zm.051-1.145c.9 0 1.53-.874 1.53-2.146 0-.978-.438-2.109-1.517-2.109-1.119 0-1.569 1.093-1.569 2.134 0 1.208.6 2.121 1.544 2.121z" transform="translate(-50.544 -20.165)" style="fill:#fff"/>
        <path data-name="Path 1184" d="M177.688 33.228c0-.721-.026-1.324-.052-1.865h1.376l.077.939h.039a2.3 2.3 0 0 1 2.006-1.08c1.093 0 2.225.707 2.225 2.687v3.716h-1.581v-3.536c0-.9-.335-1.582-1.2-1.582a1.327 1.327 0 0 0-1.234.926 1.459 1.459 0 0 0-.077.5v3.69h-1.581z" transform="translate(-52.291 -20.165)" style="fill:#fff"/>
        <path data-name="Path 1185" d="M192.906 29.442v1.607h1.5v1.183h-1.5v2.752c0 .771.206 1.157.811 1.157a2.077 2.077 0 0 0 .617-.064l.026 1.2a3.455 3.455 0 0 1-1.145.167 1.811 1.811 0 0 1-1.362-.514 2.466 2.466 0 0 1-.5-1.762v-2.936h-.888v-1.183h.888v-1.17z" transform="translate(-54.553 -19.852)" style="fill:#fff"/>
        <path data-name="Path 1186" d="M197.393 27.9h1.581v3.729H199a2.087 2.087 0 0 1 .784-.707 2.228 2.228 0 0 1 1.094-.283c1.067 0 2.185.707 2.185 2.712v3.69h-1.581v-3.526c0-.9-.334-1.595-1.209-1.595a1.32 1.32 0 0 0-1.234.887 1.432 1.432 0 0 0-.064.476v3.754h-1.581z" transform="translate(-55.775 -19.579)" style="fill:#fff"/>
        <path data-name="Path 1187" d="M208.039 34.938a1.7 1.7 0 0 0 1.928 1.62 5.042 5.042 0 0 0 1.735-.283l.231 1.08a5.62 5.62 0 0 1-2.185.4 2.962 2.962 0 0 1-3.228-3.163 3.1 3.1 0 0 1 3.061-3.368c2.031 0 2.7 1.671 2.7 3.047a4.031 4.031 0 0 1-.05.669zm2.751-1.106a1.346 1.346 0 0 0-1.3-1.53 1.547 1.547 0 0 0-1.453 1.53z" transform="translate(-57.384 -20.165)" style="fill:#fff"/>
    </g>
    <g data-name="Group 1181">
        <g data-name="Group 1179">
            <path data-name="Path 1188" d="M69.086 47.088a7.712 7.712 0 0 1 3.674-6.472 7.9 7.9 0 0 0-6.223-3.366c-2.618-.274-5.157 1.569-6.488 1.569-1.36 0-3.417-1.541-5.628-1.5a8.289 8.289 0 0 0-6.973 4.254c-3.015 5.22-.766 12.892 2.122 17.114 1.446 2.066 3.135 4.374 5.345 4.291 2.162-.09 2.969-1.377 5.58-1.377 2.587 0 3.346 1.377 5.6 1.325 2.32-.038 3.781-2.076 5.174-4.162a16.981 16.981 0 0 0 2.369-4.822 7.452 7.452 0 0 1-4.551-6.859" transform="translate(-29.084 -21.224)" style="fill:#fff"/>
            <path data-name="Path 1189" d="M67.764 32.722A7.581 7.581 0 0 0 69.5 27.28a7.719 7.719 0 0 0-5 2.587 7.221 7.221 0 0 0-1.785 5.241 6.392 6.392 0 0 0 5.046-2.386" transform="translate(-32.022 -19.471)" style="fill:#fff"/>
        </g>
        <g data-name="Group 1180">
            <path data-name="Path 1190" d="M108.778 64.3h-3.011l-1.651-5.188H98.38L96.807 64.3h-2.934l5.687-17.655h3.507zm-5.159-7.364-1.492-4.611q-.24-.7-.892-3.325h-.052q-.263 1.128-.84 3.325l-1.467 4.611z" transform="translate(-37.522 -22.885)" style="fill:#fff"/>
            <path data-name="Path 1191" d="M127.094 58.777a7.239 7.239 0 0 1-1.755 5.136 5.132 5.132 0 0 1-3.9 1.675 3.909 3.909 0 0 1-3.618-1.808h-.049v6.706h-2.832V56.759q0-2.042-.1-4.191h2.487l.158 2.018h.054a5.031 5.031 0 0 1 8.055-.5 7.021 7.021 0 0 1 1.506 4.688m-2.881.1a5.251 5.251 0 0 0-.839-3.065 2.9 2.9 0 0 0-2.461-1.259 2.938 2.938 0 0 0-1.9.694 3.23 3.23 0 0 0-1.114 1.824 3.689 3.689 0 0 0-.129.862v2.124a3.4 3.4 0 0 0 .848 2.343 2.825 2.825 0 0 0 2.216.955 2.885 2.885 0 0 0 2.488-1.23 5.406 5.406 0 0 0 .892-3.249" transform="translate(-41.218 -23.884)" style="fill:#fff"/>
            <path data-name="Path 1192" d="M144.872 58.777a7.236 7.236 0 0 1-1.756 5.136 5.129 5.129 0 0 1-3.9 1.675 3.9 3.9 0 0 1-3.616-1.808h-.053v6.706h-2.829V56.759q0-2.042-.1-4.191h2.482l.158 2.018h.054a5.03 5.03 0 0 1 8.054-.5 7.024 7.024 0 0 1 1.5 4.688m-2.88.1a5.24 5.24 0 0 0-.84-3.065 2.9 2.9 0 0 0-2.461-1.259 2.945 2.945 0 0 0-1.9.694 3.225 3.225 0 0 0-1.111 1.824 3.55 3.55 0 0 0-.133.862v2.124a3.388 3.388 0 0 0 .85 2.343 2.817 2.817 0 0 0 2.216.955 2.889 2.889 0 0 0 2.488-1.23 5.435 5.435 0 0 0 .892-3.249" transform="translate(-44.353 -23.884)" style="fill:#fff"/>
            <path data-name="Path 1193" d="M165.031 59.294a4.7 4.7 0 0 1-1.57 3.668 6.943 6.943 0 0 1-4.808 1.545 8.441 8.441 0 0 1-4.578-1.1l.656-2.358a7.758 7.758 0 0 0 4.091 1.125 3.871 3.871 0 0 0 2.491-.719 2.363 2.363 0 0 0 .889-1.93 2.467 2.467 0 0 0-.732-1.81 6.828 6.828 0 0 0-2.44-1.365q-4.637-1.733-4.635-5.065a4.476 4.476 0 0 1 1.624-3.567 6.41 6.41 0 0 1 4.323-1.394 8.576 8.576 0 0 1 4.007.839l-.706 2.305a6.981 6.981 0 0 0-3.381-.811 3.417 3.417 0 0 0-2.33.733 2.105 2.105 0 0 0-.706 1.6 2.153 2.153 0 0 0 .811 1.728 9.124 9.124 0 0 0 2.567 1.364 8.716 8.716 0 0 1 3.353 2.147 4.5 4.5 0 0 1 1.074 3.065" transform="translate(-48.137 -22.829)" style="fill:#fff"/>
            <path data-name="Path 1194" d="M177.07 54.067h-3.118v6.182q0 2.359 1.652 2.357a5.137 5.137 0 0 0 1.255-.129l.077 2.147a6.353 6.353 0 0 1-2.2.314 3.391 3.391 0 0 1-2.62-1.02 5.019 5.019 0 0 1-.943-3.433v-6.418h-1.861v-2.124h1.861v-2.33l2.777-.839v3.17h3.118z" transform="translate(-50.824 -23.261)" style="fill:#fff"/>
            <path data-name="Path 1195" d="M193.142 58.829a6.983 6.983 0 0 1-1.676 4.821 5.988 5.988 0 0 1-4.663 1.937 5.691 5.691 0 0 1-4.467-1.861 6.761 6.761 0 0 1-1.664-4.686 6.911 6.911 0 0 1 1.716-4.847 5.928 5.928 0 0 1 4.622-1.888 5.821 5.821 0 0 1 4.507 1.86 6.711 6.711 0 0 1 1.624 4.664m-2.936.091a5.733 5.733 0 0 0-.76-3.021 2.793 2.793 0 0 0-2.539-1.524 2.835 2.835 0 0 0-2.595 1.524 5.851 5.851 0 0 0-.757 3.076 5.73 5.73 0 0 0 .757 3.02 2.853 2.853 0 0 0 2.57 1.523 2.823 2.823 0 0 0 2.538-1.549 5.735 5.735 0 0 0 .786-3.048" transform="translate(-52.827 -23.884)" style="fill:#fff"/>
            <path data-name="Path 1196" d="M205.515 55.055a5.1 5.1 0 0 0-.89-.077 2.686 2.686 0 0 0-2.308 1.128 4.251 4.251 0 0 0-.706 2.514v6.68h-2.827l.024-8.722q0-2.2-.1-4.01h2.464l.1 2.438h.076a4.362 4.362 0 0 1 1.416-2.018 3.424 3.424 0 0 1 2.045-.682 4.659 4.659 0 0 1 .706.05z" transform="translate(-56.007 -23.884)" style="fill:#fff"/>
            <path data-name="Path 1197" d="M219.911 58.326a6.822 6.822 0 0 1-.1 1.284h-8.486a3.7 3.7 0 0 0 1.23 2.883 4.2 4.2 0 0 0 2.778.888 9.4 9.4 0 0 0 3.431-.6l.444 1.965a10.64 10.64 0 0 1-4.271.787 6.179 6.179 0 0 1-4.65-1.744 6.442 6.442 0 0 1-1.689-4.677 7.3 7.3 0 0 1 1.574-4.8 5.417 5.417 0 0 1 4.45-2.041 4.752 4.752 0 0 1 4.17 2.041 6.9 6.9 0 0 1 1.121 4.01m-2.7-.734a3.833 3.833 0 0 0-.548-2.174 2.477 2.477 0 0 0-2.256-1.18 2.691 2.691 0 0 0-2.251 1.153 4.191 4.191 0 0 0-.836 2.2z" transform="translate(-57.75 -23.878)" style="fill:#fff"/>
        </g>
    </g>
</svg>
