<svg xmlns="http://www.w3.org/2000/svg" xmlns:xlink="http://www.w3.org/1999/xlink" width="60" height="60" viewBox="0 0 60 60">
    <defs>
        <path id="uqmr77f4na" d="M0 0L51.429 0 51.429 51.429 0 51.429z"/>
    </defs>
    <g fill="none" fill-rule="evenodd">
        <g>
            <g>
                <g>
                    <g>
                        <g>
                            <g>
                                <g>
                                    <g>
                                        <g transform="translate(-174 -2480) translate(150 2044) translate(0 80) translate(24 256) translate(0 30) translate(0 68) translate(0 2) translate(4.286 4.286)">
                                            <mask id="mm4bu0vkmb" fill="#fff">
                                                <use xlink:href="#uqmr77f4na"/>
                                            </mask>
                                            <path fill="#10A0D5" d="M39.276 0H12.152C5.47 0 0 5.469 0 12.152v27.124C0 45.96 5.469 51.43 12.152 51.43h27.124c6.684 0 12.153-5.469 12.153-12.153V12.152C51.429 5.47 45.96 0 39.276 0m0 1.564c1.422 0 2.804.28 4.107.834 1.26.536 2.394 1.302 3.37 2.277.976.976 1.742 2.11 2.277 3.37.554 1.304.835 2.685.835 4.107v27.124c0 1.422-.28 2.804-.835 4.107-.535 1.26-1.301 2.394-2.277 3.37-.976.976-2.11 1.742-3.37 2.277-1.303.554-2.685.835-4.107.835H12.152c-1.422 0-2.803-.28-4.107-.835-1.26-.535-2.394-1.301-3.37-2.277-.975-.976-1.741-2.11-2.277-3.37-.554-1.303-.834-2.685-.834-4.107V12.152c0-1.422.28-2.803.834-4.107.536-1.26 1.302-2.394 2.277-3.37.976-.975 2.11-1.741 3.37-2.277 1.304-.554 2.685-.834 4.107-.834h27.124" mask="url(#mm4bu0vkmb)"/>
                                        </g>
                                        <path fill="#10A0D5" d="M31.59 12.832c-.02 2.96-2.436 5.345-5.396 5.326-2.961-.02-5.346-2.436-5.326-5.396.02-2.947 2.413-5.326 5.36-5.326 2.958-.003 5.359 2.392 5.362 5.35v.046M37.09 20.323c-2.909-.746-5.181-.959-10.647-.959s-11.787 1.208-11.787 1.208c-1.03.177-1.1 1.526-1.1 1.526l.07 17.715c.133 1.001 1.017 1.73 2.024 1.669 1.846 0 2.273-1.846 2.273-1.846V24.938c0-.39.177-.639.816-.639.394.024.74.273.886.64v12.888s1.314 4.51 6.817 4.51 6.532-4.439 6.532-4.439l-.038-4.615h-4.932c-.656-.1-1.244-.458-1.633-.994v-.038c-.256-.377-.392-.822-.39-1.278-.007-1.223.945-2.236 2.166-2.307h4.756l-.037-3.905s.037-.426.78-.426c.41-.023.78.243.888.639l-.106 3.763h-.71v4.473c1.314 0 2.485 0 3.16-.037 1.953-.107 1.988-2.095 1.988-2.095v-8.593c.002-1.052-.742-1.959-1.776-2.162" transform="translate(-174 -2480) translate(150 2044) translate(0 80) translate(24 256) translate(0 30) translate(0 68) translate(0 2) translate(4.286 4.286)"/>
                                        <path fill="#10A0D5" d="M33.222 28.808L32.903 28.808 32.94 30.937zM31.482 33.104L32.619 33.104 32.938 30.937 32.901 28.808 32.404 28.808zM29.459 33.104L30.169 33.104 29.92 31.932zM30.382 33.104L31.27 33.104 32.228 28.808 31.128 28.808 30.027 31.612zM30.95 28.808L29.353 28.808 29.956 31.293zM33.4 28.808L32.938 32.251 32.832 33.104 33.579 33.104 33.579 28.808zM28.254 33.103L29.284 33.103 29.887 31.612 29.246 29.092 28.217 33.068zM27.968 33.068l-.817-3.905c-.988.657-1.256 1.991-.598 2.98.325.488.837.823 1.415.925zM29.14 28.808h-.888c-.335.006-.663.091-.959.248l.782 3.728 1.065-3.976z" transform="translate(-174 -2480) translate(150 2044) translate(0 80) translate(24 256) translate(0 30) translate(0 68) translate(0 2) translate(4.286 4.286)"/>
                                    </g>
                                </g>
                            </g>
                        </g>
                    </g>
                </g>
            </g>
        </g>
    </g>
</svg>
