<svg xmlns="http://www.w3.org/2000/svg" xmlns:xlink="http://www.w3.org/1999/xlink" width="60" height="60" viewBox="0 0 60 60">
    <defs>
        <path id="qkexgxlb1a" d="M0 51.429L51.429 51.429 51.429 0 0 0z"/>
    </defs>
    <g fill="none" fill-rule="evenodd">
        <g>
            <g>
                <g>
                    <g>
                        <g>
                            <g>
                                <g>
                                    <g transform="translate(-174 -2548) translate(150 2044) translate(0 80) translate(24 256) translate(0 30) translate(0 138) translate(4.286 4.286)">
                                        <path fill="#F4AD24" d="M12.705 22.253c-1.408 0-2.55 1.141-2.55 2.55 0 1.407 1.142 2.548 2.55 2.548s2.55-1.141 2.55-2.549-1.142-2.55-2.55-2.55"/>
                                        <path fill="#F4AD24" d="M16.405 35.068l-.103-1.017-.004-.047c0-.008-.002-.015-.003-.023l-.35-3.485c.696-.238 1.352-.562 1.965-.972.745-.498 1.42-1.12 2.016-1.856-.484-.24-.95-.513-1.392-.816-.35-.24-.685-.5-1.008-.777-.379.433-.794.8-1.242 1.094-.884.582-1.924.899-3.096.944l.17 1.118-.32.143.577 6.163-.85.662v.014l-.009-.007-.009.007v-.014l-.85-.662.577-6.158-.305-.125.142-1.156c-1.194-.083-2.238-.421-3.108-1.007-.78-.527-1.444-1.265-1.97-2.194-.955-1.685-1.13-3.419-1.131-3.436v.005h-.008c-.064-.725-.673-1.295-1.416-1.295-.785 0-1.422.637-1.422 1.422 0 .042.003.083.006.123l-.01.001c.008.092.213 2.28 1.435 4.49.741 1.342 1.703 2.423 2.858 3.216.55.378 1.142.688 1.77.929l-.356 4.716c0 .134.006.266.016.397l-.14 1.517h7.737l-.168-1.829v-.085M42.044 35.068l-.102-1.017-.004-.047-.003-.023-.35-3.485c.696-.238 1.352-.562 1.965-.972 1.186-.793 2.192-1.898 2.991-3.284 1.313-2.278 1.62-4.565 1.633-4.662h-.01c.008-.06.013-.121.013-.183 0-.785-.637-1.422-1.422-1.422-.724 0-1.32.54-1.41 1.24l-.01-.001.001-.004c-.002.018-.264 1.886-1.314 3.672-.579.983-1.285 1.754-2.098 2.29-.997.655-2.192.974-3.551.948-1.372-.028-2.56-.373-3.53-1.027-.429-.29-.822-.643-1.177-1.056-.39.344-.8.66-1.229.946-.368.247-.751.471-1.146.673.555.693 1.188 1.285 1.894 1.77.55.377 1.141.687 1.77.928l-.356 4.716c0 .134.005.266.016.397l-.14 1.517h7.737l-.169-1.829.001-.085M17.585 16.222v.006h-.01c-.076-.865-.803-1.545-1.69-1.545-.937 0-1.696.76-1.696 1.697 0 .05.002.099.006.147l-.012.001c.01.11.255 2.721 1.713 5.36.243.438.505.853.786 1.244l2.858-1.878c-.216-.29-.418-.6-.605-.93-1.14-2.011-1.348-4.081-1.35-4.102"/>
                                        <mask id="q7otwrwcsb" fill="#fff">
                                            <use xlink:href="#qkexgxlb1a"/>
                                        </mask>
                                        <path fill="#F4AD24" d="M26.48 27.7h2.323v-.525H26.48v.526zm3.4 4.762l-.121-1.213-.005-.056-.004-.029-.418-4.159c.403-.137.794-.3 1.174-.485.404-.197.795-.422 1.172-.674.42-.28.82-.594 1.2-.939.378-.342.736-.715 1.074-1.118l-2.871-1.906c-.415.45-.864.836-1.344 1.152-.174.114-.353.22-.536.317-.578.306-1.205.526-1.876.66v1.41l-1.281-.636v9.469h-.66v-9.516l-1.374.683v-1.4c-.683-.125-1.317-.328-1.899-.608-.288-.139-.563-.296-.825-.473-.398-.268-.77-.583-1.115-.941l-2.877 1.91c.325.38.671.731 1.038 1.054.31.275.636.529.975.761.45.31.923.58 1.417.812.227.107.46.206.696.297l-.425 5.628c0 .16.007.318.019.474l-.372 4.046h9.644l-.406-4.418v-.102zM37.185 16.361c.01-.071.015-.144.015-.217 0-.938-.76-1.697-1.697-1.697-.864 0-1.576.645-1.683 1.48l-.011-.002v-.005c-.002.022-.314 2.252-1.568 4.383-.172.291-.353.567-.543.827l2.857 1.877c.244-.342.475-.703.693-1.08 1.567-2.72 1.933-5.45 1.948-5.564l-.01-.002z" mask="url(#q7otwrwcsb)"/>
                                        <path fill="#F4AD24" d="M27.155 19.484c-.33.031-1.154-.886-2.722 0 0 0-.137.217-.385.001-.186-.162-.682-.744-.917-1.024-.305.474-.482 1.037-.482 1.643 0 1.68 1.362 3.042 3.043 3.042 1.68 0 3.042-1.362 3.042-3.042 0-.628-.19-1.211-.516-1.695-.244.33-.808 1.052-1.063 1.075M35.803 24.6c-.005.066-.008.134-.008.202 0 1.408 1.142 2.55 2.55 2.55s2.549-1.142 2.549-2.55c0-.068-.003-.136-.008-.203h-5.083zM40.946 23.167h-.017c-.107-.93-.703-1.71-1.524-2.078V22.6h-.4v-1.652l-.006-.001v-.415h-1.314V22.6h-.4v-1.514c-.824.367-1.423 1.149-1.53 2.081h-.012c-.223 0-.403.18-.403.403 0 .022.002.044.006.066-.004.021-.006.043-.006.066 0 .222.18.402.403.402h5.203c.223 0 .403-.18.403-.402 0-.023-.002-.045-.006-.066.004-.022.006-.044.006-.066 0-.223-.18-.403-.403-.403M25.61 17.518c1.023-.019 1.808.254 2.267.47l.003.002-.004-.003c-.097-1.04-.945-1.868-2.01-1.96.002-.007.002-.016.002-.024 0-.11-.089-.2-.199-.2-.11 0-.2.09-.2.2l.003.025c-1.076.094-1.93.94-2.01 1.996l.016-.008c.433-.217 1.154-.48 2.132-.498" mask="url(#q7otwrwcsb)"/>
                                        <path fill="#F4AD24" d="M24.234 19.063c.038.03.073.049.106.06.152.056.235-.061.235-.061 1.34-.657 2.118.024 2.41 0 .024-.002.049-.009.075-.02.31-.125.826-.794.826-.794s-.032-.024-.097-.061c-.24-.138-.927-.46-2.103-.44-1.16.019-1.863.31-2.12.44-.073.037-.11.06-.11.06s.559.645.778.816" mask="url(#q7otwrwcsb)"/>
                                        <path fill="#F4AD24" d="M39.276 0H12.152C5.47 0 0 5.469 0 12.152v27.124C0 45.96 5.469 51.43 12.152 51.43h27.124c6.684 0 12.153-5.469 12.153-12.153V12.152C51.429 5.47 45.96 0 39.276 0m0 1.564c1.422 0 2.804.28 4.107.834 1.26.536 2.394 1.302 3.37 2.277.976.976 1.742 2.11 2.277 3.37.554 1.304.835 2.685.835 4.107v27.124c0 1.422-.28 2.804-.835 4.107-.535 1.26-1.301 2.394-2.277 3.37-.976.976-2.11 1.742-3.37 2.277-1.303.554-2.685.835-4.107.835H12.152c-1.422 0-2.803-.28-4.107-.835-1.26-.535-2.394-1.301-3.37-2.277-.975-.976-1.741-2.11-2.277-3.37-.554-1.303-.834-2.685-.834-4.107V12.152c0-1.422.28-2.803.834-4.107.536-1.26 1.302-2.394 2.277-3.37.976-.975 2.11-1.741 3.37-2.277 1.304-.554 2.685-.834 4.107-.834h27.124" mask="url(#q7otwrwcsb)"/>
                                    </g>
                                </g>
                            </g>
                        </g>
                    </g>
                </g>
            </g>
        </g>
    </g>
</svg>
