<svg xmlns="http://www.w3.org/2000/svg" xmlns:xlink="http://www.w3.org/1999/xlink" width="60" height="60" viewBox="0 0 60 60">
    <defs>
        <path id="4qby3fru0a" d="M0 0L51.429 0 51.429 51.429 0 51.429z"/>
    </defs>
    <g fill="none" fill-rule="evenodd">
        <g>
            <g>
                <g>
                    <g>
                        <g>
                            <g>
                                <g>
                                    <path fill="#F26522" d="M21.93 23.548c0-.12-.031-.21-.031-.33 1.496-.298 2.991-.328 4.518-.448.031.15.031.3.06.479-1.525.089-3.02.178-4.547.298zm21.363-7.84c.598-.598.478-1.077-.24-1.556-.478-.329-.957-.568-.807-1.316.03-.15-.3-.449-.51-.539-.271-.077-.555-.107-.837-.09 0-1.585-.27-1.735-2.274-1.166-.18-.808-.808-.808-1.167-.449-.63.598-1.256.33-1.944.27-.502-.104-1.016-.134-1.526-.09-.33.06-.808.388-.868.658-.24 1.167-.359 2.363.778 3.231.569.419.538.778.06 1.257-1.616 1.556-3.261 3.081-4.758 4.727-1.196 1.316-2.542 2.005-4.368 1.915-1.062-.01-2.123.07-3.171.24-.513.092-1.032-.132-1.316-.57-1.945-2.662-3.92-5.325-5.895-7.958-.239-.329-.778-.778-1.047-.688-.389.12-.688.63-.927 1.017-.33.509-.539 1.137-.928 1.616-1.346 1.646-2.483 3.38-2.723 5.565-.031.269-.299.478-.388.748-.225.604-.405 1.224-.54 1.855-.119.568-.03 1.196-.119 1.794-.21 1.436.898 3.47 2.214 4.01 1.197.478 2.425.897 3.621 1.376.61.209 1.034.763 1.077 1.406.106.83.392 1.626.838 2.333.748 1.107 1.735 2.065 2.603 3.082.209.27.538.539.568.838.18 1.376 1.228 1.735 2.304 1.795 2.214.09 4.428.031 6.643 0 .93.02 1.76-.578 2.035-1.466.22-.605.744-1.048 1.376-1.167 1.077-.33 2.184-.598 3.171-1.107 2.363-1.226 4.25-2.841 4.278-5.832.047-.589.266-1.15.63-1.616.594-.743.883-1.685.807-2.633-.09-1.017-.18-2.035-.269-3.112.812.064 1.56-.447 1.795-1.228.299-.897-.24-1.556-.838-2.094-.27-.24-.598-.419-.898-.658l.12-.24c.416-.07.826-.17 1.228-.299.486-.159.987-.27 1.496-.329-.24-.329-.719-.927-.988-1.228-.174-.204-.364-.394-.568-.568.209-.18.419-.33.658-.509.507-.477 1.165-.746 1.614-1.225z" transform="translate(-174 -2410) translate(150 2044) translate(0 80) translate(24 256) translate(0 30) translate(4.286 4.286)"/>
                                    <path fill="#F26522" d="M17.771 13.733c.719-.27 1.586-.598 2.393-.927-.478-.39-.849-.894-1.077-1.466-1.017.418-2.573 1.077-3.71 1.525 1.197 2.962 2.873 1.736 3.86 4.728.538-.21 1.137-.449 1.735-.659-.956-1.256-2.213-.956-3.2-3.201" transform="translate(-174 -2410) translate(150 2044) translate(0 80) translate(24 256) translate(0 30) translate(4.286 4.286)"/>
                                    <path fill="#F26522" d="M21.57 12.387c-.358.15-.807.3-1.256.479-.778.299-1.646.63-2.334.898.928 2.124 2.185 1.855 3.112 3.051.275.361.488.765.63 1.197 1.256-.449 3.081-1.107 3.62-1.257-.18-2.243-2.903-2.333-3.771-4.368M23.337 13.167c.035.697.618 1.241 1.317 1.228.677.048 1.266-.462 1.314-1.14.049-.677-.461-1.265-1.139-1.314-.058-.004-.117-.004-.175 0-.698-.013-1.28.529-1.317 1.226M23.576 18.401c.727 0 1.317.55 1.317 1.227s-.59 1.226-1.317 1.226-1.316-.549-1.316-1.226c0-.678.59-1.227 1.316-1.227" transform="translate(-174 -2410) translate(150 2044) translate(0 80) translate(24 256) translate(0 30) translate(4.286 4.286)"/>
                                    <g transform="translate(-174 -2410) translate(150 2044) translate(0 80) translate(24 256) translate(0 30) translate(4.286 4.286)">
                                        <mask id="p9v6pkvqzb" fill="#fff">
                                            <use xlink:href="#4qby3fru0a"/>
                                        </mask>
                                        <path fill="#F26522" d="M39.276 0H12.152C5.47 0 0 5.469 0 12.152v27.124C0 45.96 5.469 51.43 12.152 51.43h27.124c6.684 0 12.153-5.469 12.153-12.153V12.152C51.429 5.47 45.96 0 39.276 0m0 1.564c1.422 0 2.804.28 4.107.834 1.26.536 2.394 1.302 3.37 2.277.976.976 1.742 2.11 2.277 3.37.554 1.304.835 2.685.835 4.107v27.124c0 1.422-.28 2.804-.835 4.107-.535 1.26-1.301 2.394-2.277 3.37-.976.976-2.11 1.742-3.37 2.277-1.303.554-2.685.835-4.107.835H12.152c-1.422 0-2.803-.28-4.107-.835-1.26-.535-2.394-1.301-3.37-2.277-.975-.976-1.741-2.11-2.277-3.37-.554-1.303-.834-2.685-.834-4.107V12.152c0-1.422.28-2.803.834-4.107.536-1.26 1.302-2.394 2.277-3.37.976-.975 2.11-1.741 3.37-2.277 1.304-.554 2.685-.834 4.107-.834h27.124" mask="url(#p9v6pkvqzb)"/>
                                    </g>
                                </g>
                            </g>
                        </g>
                    </g>
                </g>
            </g>
        </g>
    </g>
</svg>
