<svg xmlns="http://www.w3.org/2000/svg" xmlns:xlink="http://www.w3.org/1999/xlink" width="60" height="60" viewBox="0 0 60 60">
    <defs>
        <path id="2anj0vqnqa" d="M0 0L51.429 0 51.429 51.429 0 51.429z"/>
        <path id="sjobqpyqhc" d="M0 51.429L51.429 51.429 51.429 0 0 0z"/>
    </defs>
    <g fill="none" fill-rule="evenodd">
        <g>
            <g>
                <g>
                    <g>
                        <g>
                            <g>
                                <g>
                                    <g transform="translate(-399 -2410) translate(150 2044) translate(0 80) translate(24 256) translate(0 30) translate(225) translate(4.286 4.286)">
                                        <g>
                                            <mask id="36vp334a3b" fill="#fff">
                                                <use xlink:href="#2anj0vqnqa"/>
                                            </mask>
                                            <path fill="#E2175E" d="M39.276 0H12.152C5.47 0 0 5.469 0 12.152v27.124C0 45.96 5.469 51.43 12.152 51.43h27.124c6.684 0 12.153-5.469 12.153-12.153V12.152C51.429 5.47 45.96 0 39.276 0m0 1.564c1.422 0 2.804.28 4.107.834 1.26.536 2.394 1.302 3.37 2.277.976.976 1.742 2.11 2.277 3.37.554 1.304.835 2.685.835 4.107v27.124c0 1.422-.28 2.804-.835 4.107-.535 1.26-1.301 2.394-2.277 3.37-.976.976-2.11 1.742-3.37 2.277-1.303.554-2.685.835-4.107.835H12.152c-1.422 0-2.803-.28-4.107-.835-1.26-.535-2.394-1.301-3.37-2.277-.975-.976-1.741-2.11-2.277-3.37-.554-1.303-.834-2.685-.834-4.107V12.152c0-1.422.28-2.803.834-4.107.536-1.26 1.302-2.394 2.277-3.37.976-.975 2.11-1.741 3.37-2.277 1.304-.554 2.685-.834 4.107-.834h27.124" mask="url(#36vp334a3b)"/>
                                        </g>
                                        <path fill="#E2175E" d="M26.498 27.121c.736.014 1.466-.124 2.146-.406 2.094-1.194 2.824-3.86 1.63-5.953-1.194-2.094-3.86-2.824-5.954-1.63s-2.823 3.86-1.63 5.954c.283.495.66.93 1.11 1.281v-.058c.806.518 1.74.8 2.698.812M34.967 31.646c0-1.828-1.19-2.466-3.016-2.466h-1.393s-1.247.058-1.247-1.77c-.194.162-.409.298-.638.406-.658.361-1.396.551-2.146.551-.978-.001-1.927-.328-2.698-.928-.203 1.798-1.421 1.711-1.421 1.711h-1.334c-1.828 0-3.017.639-3.017 2.466v7.831h16.94v-7.801h-.03z"/>
                                        <path fill="#C4094A" d="M37.694 39.448H14.867V12.705h16.36c.03-.03.058-.058.087-.058H14.81v26.888h22.943V20.537h-.058v18.911z"/>
                                        <path fill="#C4094A" d="M37.905 39.688H14.656V12.495h16.658v.305c.03 0 .048-.012.048-.013-.009.007-.017.016-.027.026l-.044.044-.064.001H15.02v26.438h22.522V20.384h.363v19.304z"/>
                                        <path fill="#E2175E" d="M38.97 40.753H13.562V11.545h17.52c-.058-.087-.145-.174-.203-.261H13.3v29.76h25.96V20.188c-.082.05-.17.09-.262.116v20.45l-.029-.002z"/>
                                        <path fill="#E2175E" d="M38.986 40.891h.06l-.06-.136v.136zm.427.305H13.148V11.132H30.96l.045.067c.026.04.06.078.092.117.04.048.08.096.112.144l.158.238H13.714V40.6h25.133V20.19l.11-.032c.079-.023.154-.056.223-.099l.233-.145v21.282z"/>
                                        <path fill="#C4094A" d="M37.897 11.632c.593 0 1.073.48 1.073 1.073s-.48 1.074-1.073 1.074-1.073-.48-1.073-1.074c0-.592.48-1.073 1.073-1.073"/>
                                        <mask id="t0pb33no8d" fill="#fff">
                                            <use xlink:href="#sjobqpyqhc"/>
                                        </mask>
                                        <path fill="#C4094A" d="M37.694 14.765L37.801 14.765 37.801 14.446 37.694 14.446zM36.157 12.647h-.261v.108h.26c-.015-.029-.016-.076 0-.106v-.002z" mask="url(#t0pb33no8d)"/>
                                        <path fill="#E2175E" d="M39.115 10.791c0-.513.416-.928.929-.928.512 0 .928.415.928.928 0 .513-.416.928-.928.928-.507-.013-.914-.42-.929-.927zm-1.073-.29c-.512 0-.928-.415-.928-.928 0-.513.416-.928.928-.928.513 0 .928.415.928.928.007.506-.397.921-.903.928h-.025zm5.888 2.407c-.447.266-.958.406-1.479.406-.295-.005-.589-.054-.87-.145-.096.421-.468.721-.9.726-.512 0-.927-.416-.927-.929 0-.512.415-.928.928-.928.512 0 .928.416.928.928v.087c.27.093.555.142.841.145.503.004.996-.137 1.421-.406 1.343-.787 1.793-2.514 1.005-3.857-.51-.87-1.446-1.4-2.455-1.392-1.275.002-2.392.857-2.726 2.088-.03-.03-.058-.03-.087-.058.176-.61.541-1.149 1.044-1.537 0-.116.03-.203.03-.32.016-1.52-1.205-2.766-2.726-2.781-1.385-.014-2.565 1.003-2.756 2.376.633.49 1.048 1.208 1.16 2.001-.022.003-.042.014-.058.03.382.118.64.472.639.87 0 .513-.416.929-.929.929-.512 0-.928-.416-.928-.928 0-.513.416-.929.928-.929.087 0 .174.031.261.031-.185-1.444-1.415-2.525-2.871-2.524-1.6.006-2.895 1.3-2.9 2.9.006.533.157 1.054.435 1.508.059.094.127.182.203.261.22.285.497.522.812.697.388.229.826.358 1.276.377.058 0 .145.03.203.03.079.004.158-.006.232-.03.156-.005.312-.025.464-.058 0-.513.416-.929.928-.929.513 0 .929.416.929.929v.087h.26c.022-.405.174-.792.436-1.103.084-.11.194-.2.319-.26.61-.426 1.42-.426 2.03 0 .123.098.24.204.348.318.541.657.541 1.606 0 2.263l-.261.26c-.305.244-.683.377-1.073.378h-.145v.317c.512.013.917.44.904.952-.013.494-.41.891-.904.904h-.058c-.513-.013-.918-.44-.905-.952.013-.494.41-.891.905-.904v-.32c-.878-.11-1.537-.855-1.537-1.74h-.261c-.076.454-.47.785-.929.784-.453 0-.836-.334-.899-.783v-.058c-.087.03-.174.03-.232.058-.153.024-.308.035-.464.03-.174 0-.319-.03-.493-.03-.116-.03-.232-.03-.319-.058-.258-.064-.503-.172-.725-.32-.186.086-.362.193-.522.32-.03.03-.058.058-.087.058-.694.558-1.1 1.4-1.104 2.29-.005 1.614 1.299 2.926 2.912 2.93h.018c.7 0 1.377-.246 1.914-.695.069-.479.247-.936.522-1.334-.51-.062-.874-.527-.812-1.037.062-.511.526-.875 1.037-.813.466.057.817.452.82.922-.004.51-.418.924-.93.928-.302.4-.5.868-.579 1.363-.025.124-.035.25-.03.377.01 1.504 1.169 2.75 2.668 2.872h.203c.367-.006.73-.075 1.073-.203.087-.031.174-.087.261-.116.94-.508 1.528-1.486 1.538-2.553v-.116c-.027-.615-.25-1.205-.639-1.682-.127.059-.265.089-.406.087-.174-.004-.344-.054-.493-.145-.113-.056-.205-.148-.26-.261-.233-.31-.233-.735 0-1.045.071-.1.16-.189.26-.26.149-.092.32-.142.493-.145.506-.008.922.396.93.902v.025c.01.329-.17.634-.464.783.388.477.612 1.068.638 1.682.492.398 1.107.613 1.74.61 1.538.001 2.785-1.245 2.786-2.783v-.002c-.087-.992-.664-1.874-1.539-2.35z" mask="url(#t0pb33no8d)"/>
                                        <path fill="#C4094A" d="M39.899 10.24c.32 0 .58.26.58.58 0 .32-.26.58-.58.58-.32 0-.58-.26-.58-.58 0-.32.26-.58.58-.58M40.479 12.386c.32 0 .58.26.58.58 0 .32-.26.58-.58.58-.32 0-.58-.26-.58-.58 0-.32.26-.58.58-.58M39.666 14.388c-.32 0-.58.26-.58.58 0 .32.26.58.58.58.32 0 .58-.26.58-.58 0-.32-.26-.58-.58-.58M37.723 14.968c.32 0 .58.26.58.58 0 .32-.26.58-.58.58-.32 0-.58-.26-.58-.58 0-.32.26-.58.58-.58M35.809 14.388c.32 0 .58.26.58.58 0 .32-.26.58-.58.58-.32 0-.58-.26-.58-.58 0-.32.26-.58.58-.58M35.692 12.56c0-.32-.26-.58-.58-.58-.32 0-.58.26-.58.58 0 .32.26.58.58.58.312.009.571-.236.58-.548v-.032M35.49 10.356c0 .32.26.58.58.58.32 0 .58-.26.58-.58 0-.32-.26-.58-.58-.58-.312.02-.56.269-.58.58M38.042 9.109c.32 0 .58.26.58.58 0 .32-.26.58-.58.58-.32 0-.58-.26-.58-.58 0-.32.26-.58.58-.58" mask="url(#t0pb33no8d)"/>
                                    </g>
                                </g>
                            </g>
                        </g>
                    </g>
                </g>
            </g>
        </g>
    </g>
</svg>
