<svg xmlns="http://www.w3.org/2000/svg" xmlns:xlink="http://www.w3.org/1999/xlink" width="60" height="60" viewBox="0 0 60 60">
    <defs>
        <path id="1zy6q04l3a" d="M0 0L51.429 0 51.429 51.429 0 51.429z"/>
    </defs>
    <g fill="none" fill-rule="evenodd">
        <g>
            <g>
                <g>
                    <g>
                        <g>
                            <g>
                                <g>
                                    <g>
                                        <g transform="translate(-399 -2480) translate(150 2044) translate(0 80) translate(24 256) translate(0 30) translate(225 68) translate(0 2) translate(4.286 4.286)">
                                            <mask id="0jiv870b2b" fill="#fff">
                                                <use xlink:href="#1zy6q04l3a"/>
                                            </mask>
                                            <path fill="#99C162" d="M39.276 0H12.152C5.47 0 0 5.469 0 12.152v27.124C0 45.96 5.469 51.43 12.152 51.43h27.124c6.684 0 12.153-5.469 12.153-12.153V12.152C51.429 5.47 45.96 0 39.276 0m0 1.564c1.422 0 2.804.28 4.107.834 1.26.536 2.394 1.302 3.37 2.277.976.976 1.742 2.11 2.277 3.37.554 1.304.835 2.685.835 4.107v27.124c0 1.422-.28 2.804-.835 4.107-.535 1.26-1.301 2.394-2.277 3.37-.976.976-2.11 1.742-3.37 2.277-1.303.554-2.685.835-4.107.835H12.152c-1.422 0-2.803-.28-4.107-.835-1.26-.535-2.394-1.301-3.37-2.277-.975-.976-1.741-2.11-2.277-3.37-.554-1.303-.834-2.685-.834-4.107V12.152c0-1.422.28-2.803.834-4.107.536-1.26 1.302-2.394 2.277-3.37.976-.975 2.11-1.741 3.37-2.277 1.304-.554 2.685-.834 4.107-.834h27.124" mask="url(#0jiv870b2b)"/>
                                        </g>
                                        <path fill="#99C162" d="M22.7 18.99c0 .092-.03.185-.03.277 0 1.543.062 3.084 0 4.628-.093 1.974.308 3.856.463 5.8.215 3.054.339 6.139.493 9.193.047.465.016.934-.093 1.388-.308 1.267-1.974 1.605-2.992.803-.432-.34-.556-.957-.556-1.543 0-.987 0-1.974-.032-2.992-.093-2.87-.216-5.708-.71-8.546-.006-.085-.026-.169-.061-.247h-.864c-.124 1.018-.309 2.036-.37 3.084-.155 2.9-.278 5.8-.37 8.731-.033.771-.248 1.388-.988 1.759-1.234.616-2.684-.185-2.653-1.543.061-3.023.032-6.047.4-9.008.525-4.103.494-8.175.494-12.279-.016-.091-.027-.184-.032-.277-.68.37-1.358.71-1.697 1.357-.375.825-.704 1.67-.988 2.53-.1.193-.026.432.167.534.016.008.032.015.05.021.616.309 1.233 1.573 1.048 2.252-.104.28-.332.496-.617.587-.339.092-.586-.155-.71-.494-.068-.243-.12-.49-.153-.74-.926.863-1.667.802-2.376-.247-.073.346-.124.696-.154 1.049v15.549c-.033.431-.185.678-.679.649-.494-.03-.71-.185-.71-.71V24.697c.006-.976.57-1.862 1.45-2.283.174-.127.295-.313.34-.524.226-1.354.753-2.64 1.542-3.764 1.056-1.434 2.647-2.38 4.412-2.622.256.016.497.126.678.308.846.852 2.101 1.15 3.24.772.516-.162.99-.436 1.388-.803.292-.347.8-.413 1.172-.154.624.34 1.204.754 1.728 1.234 1.883 1.883 2.5 4.318 2.93 6.817.062.34.093.65.124.988.066.646-.403 1.225-1.049 1.295-.602-.012-1.11-.454-1.203-1.049-.202-1.257-.47-2.504-.802-3.733-.247-.802-.74-1.542-1.11-2.283.034.032-.058.063-.12.094" transform="translate(-399 -2480) translate(150 2044) translate(0 80) translate(24 256) translate(0 30) translate(225 68) translate(0 2) translate(4.286 4.286)"/>
                                        <path fill="#99C162" d="M18.813 16.491c-1.808-.018-3.28-1.462-3.331-3.27 0-1.666 1.45-3.332 3.27-3.332 1.728-.032 3.3 1.573 3.332 3.301.061 1.82-1.668 3.332-3.27 3.301M29.272 20.995c-.186.987-.432 1.975-.556 2.993-.308 2.746-.956 5.46-.895 8.268.031.864.247 1.542 1.173 1.883.123.032.216.339.216.493-.033 1.728-.062 3.424-.124 5.121 0 .587.093 1.142.65 1.481.629.43 1.464.405 2.066-.062.245-.19.41-.466.463-.771.062-.679.062-1.357.062-2.036V34.94h1.697c0 .154.03.339.03.524.031 1.511.062 2.992.062 4.473 0 1.018.617 1.573 1.605 1.573.956 0 1.634-.524 1.634-1.542-.03-1.79-.061-3.548-.123-5.337 0-.34.062-.524.401-.617.617-.216.987-.617.956-1.296-.061-1.419-.061-2.838-.215-4.226-.34-2.715-.803-5.399-1.204-8.084 1.358.586 2.623 2.5 2.56 4.01-.043.188-.139.36-.277.494-.484.439-.782 1.046-.833 1.697-.063.34.16.667.5.73.029.006.058.01.087.01.462.062.586-.277.649-.649.047-.21.11-.415.185-.616.864.4 1.203.4 1.974-.155.11.33.183.672.216 1.019v13.728c0 .185 0 .463.124.555.214.156.476.232.74.216.154-.032.34-.37.34-.555.03-2.715 0-5.43 0-8.145V26.61c.062-.872-.433-1.688-1.234-2.036-.126-.088-.214-.22-.247-.37-.154-.679-.185-1.388-.463-1.975-.334-.773-.77-1.5-1.295-2.16-.987-1.326-2.406-1.974-3.95-2.405-.267-.086-.56 0-.74.216-1.357 1.295-3.177 1.326-4.566.032-.242-.266-.631-.341-.956-.185-.396.175-.778.381-1.141.617-1.424.987-2.554 2.34-3.27 3.918-.526 1.146-.83 2.38-.898 3.639-.061.71.278 1.172.926 1.233.649.093 1.08-.247 1.233-.956.155-.74.216-1.543.525-2.221.411-.916.885-1.803 1.419-2.653.095-.15.198-.294.308-.432.06.044.121.086.186.123" transform="translate(-399 -2480) translate(150 2044) translate(0 80) translate(24 256) translate(0 30) translate(225 68) translate(0 2) translate(4.286 4.286)"/>
                                        <path fill="#99C162" d="M33.313 18.558c1.66-.04 2.971-1.418 2.931-3.077v-.007c.029-1.453-1.03-2.7-2.467-2.908-.225-.035-.453-.043-.68-.023-1.603.123-2.9 1.142-2.807 2.962.03 1.82 1.326 3.115 3.023 3.053" transform="translate(-399 -2480) translate(150 2044) translate(0 80) translate(24 256) translate(0 30) translate(225 68) translate(0 2) translate(4.286 4.286)"/>
                                        <path fill="#99C162" d="M34.825 12.696c.062-.833-.833-1.511-1.543-1.511-.848.004-1.561.638-1.666 1.48.995-.576 2.225-.564 3.209.031" transform="translate(-399 -2480) translate(150 2044) translate(0 80) translate(24 256) translate(0 30) translate(225 68) translate(0 2) translate(4.286 4.286)"/>
                                    </g>
                                </g>
                            </g>
                        </g>
                    </g>
                </g>
            </g>
        </g>
    </g>
</svg>
